<?xml version="1.0" standalone="no"?>
<!DOCTYPE svg PUBLIC "-//W3C//DTD SVG 20010904//EN"
 "http://www.w3.org/TR/2001/REC-SVG-20010904/DTD/svg10.dtd">
<svg version="1.0" xmlns="http://www.w3.org/2000/svg"
 width="158.000000pt" height="319.000000pt" viewBox="0 0 158.000000 319.000000"
 preserveAspectRatio="xMidYMid meet">

<g transform="translate(0.000000,319.000000) scale(0.100000,-0.100000)"
fill="#000000" stroke="none">
<path d="M679 3149 c-293 -69 -531 -389 -621 -832 -20 -97 -23 -142 -23 -342
0 -264 12 -347 75 -536 72 -217 159 -358 306 -497 53 -51 100 -92 105 -92 5 0
13 -8 18 -19 6 -10 22 -22 36 -25 14 -4 23 -11 20 -16 -4 -6 9 -10 31 -10 52
0 110 -19 140 -47 l25 -23 8 23 c16 42 35 49 118 46 72 -4 79 -2 88 18 5 12
17 24 27 26 10 3 18 11 18 19 0 7 20 25 44 41 149 94 297 308 376 544 238 714
-43 1584 -556 1718 -62 16 -176 18 -235 4z m29 -61 c19 -19 14 -56 -9 -63 -16
-5 -19 -12 -15 -30 4 -16 1 -25 -11 -29 -9 -4 -17 -5 -19 -4 -4 5 -44 99 -44
104 0 6 61 33 76 34 5 0 15 -5 22 -12z m145 -46 c23 -59 18 -71 -19 -52 -20
11 -29 12 -44 2 -45 -28 -51 -9 -20 63 28 64 55 60 83 -13z m145 12 c12 -8 22
-24 22 -35 0 -23 -13 -25 -34 -4 -20 20 -33 19 -46 -4 -11 -22 1 -35 32 -36
23 0 27 -15 7 -28 -11 -7 -25 -5 -45 4 -40 19 -47 79 -12 103 28 20 48 20 76
0z m-494 -80 c9 -8 14 -19 11 -24 -2 -4 9 -10 26 -14 27 -5 30 -8 18 -22 -9
-11 -22 -14 -41 -10 -30 6 -38 -7 -12 -22 14 -8 14 -10 0 -21 -13 -11 -22 -7
-55 21 -23 18 -41 37 -41 41 0 12 56 67 69 67 5 0 17 -7 25 -16z m618 -11 c15
-15 28 -30 28 -35 0 -14 -27 -9 -40 7 -7 8 -17 15 -23 15 -6 0 0 -11 12 -24
27 -29 10 -47 -20 -20 -28 25 -37 8 -10 -20 37 -39 5 -44 -35 -5 l-34 33 37
38 c20 21 42 38 47 38 5 0 23 -12 38 -27z m-210 -55 c171 -79 314 -342 362
-671 21 -136 21 -388 0 -524 -28 -194 -92 -373 -176 -499 -50 -75 -65 -91 -75
-80 -3 3 8 21 25 40 17 19 48 65 68 103 41 72 117 280 108 295 -3 4 -37 8 -75
8 -57 0 -74 4 -92 21 l-22 21 26 -4 c30 -3 75 18 83 39 9 23 -62 9 -85 -16
-31 -33 -49 -27 -42 14 3 19 2 35 -2 35 -15 0 -45 -33 -45 -50 0 -9 -5 -21
-12 -28 -9 -9 -7 -12 9 -12 12 0 25 -4 28 -10 9 -15 -27 -12 -48 4 -10 8 -14
17 -9 20 11 7 22 66 12 66 -14 0 -60 -50 -60 -65 0 -8 -4 -15 -10 -15 -5 0
-10 12 -10 27 l0 27 -28 -27 c-29 -28 -62 -36 -62 -14 0 9 -3 8 -9 -2 -5 -8
-14 -10 -21 -6 -8 5 -11 4 -7 -2 3 -5 -3 -17 -14 -27 -24 -20 -19 -22 -109 59
l-45 40 38 -41 39 -42 -146 -7 c-81 -4 -149 -11 -152 -16 -7 -12 50 -177 87
-251 17 -35 52 -91 76 -126 52 -73 52 -94 0 -30 -273 335 -311 1061 -80 1500
124 236 299 326 475 246z m284 -33 c3 -8 1 -28 -4 -45 -11 -29 -11 -30 12 -15
21 14 25 14 36 1 10 -13 4 -20 -36 -46 -26 -16 -51 -30 -55 -30 -13 0 -19 32
-9 50 17 32 12 41 -14 25 -16 -11 -26 -13 -31 -6 -9 15 1 28 43 56 44 28 51
30 58 10z m-758 -21 c43 -30 16 -104 -39 -104 -33 0 -69 31 -69 58 0 26 37 62
63 62 12 0 33 -7 45 -16z m-87 -116 c40 -22 48 -43 29 -79 -12 -22 -50 -26
-50 -4 0 7 8 18 17 23 14 8 10 13 -25 31 -28 14 -40 26 -36 36 8 20 19 19 65
-7z m935 -3 c16 -25 16 -56 -1 -56 -5 0 -13 10 -17 23 -5 20 -6 19 -7 -8 -2
-61 -58 -70 -81 -13 -11 26 -11 33 4 47 17 17 17 17 20 -30 1 -10 5 -17 11
-15 5 1 8 12 6 25 -3 26 14 52 35 52 7 0 21 -11 30 -25z m44 -100 c0 -8 -15
-21 -33 -29 -63 -26 -74 -27 -81 -11 -4 12 6 21 37 35 51 24 77 25 77 5z
m-970 -20 c0 -8 -9 -19 -21 -25 -16 -9 -19 -17 -14 -40 9 -43 -6 -43 -58 1
-40 34 -45 43 -37 60 9 15 22 19 70 19 46 0 60 -3 60 -15z m994 -47 c9 -12 16
-30 16 -40 0 -22 -20 -34 -30 -18 -6 9 -10 7 -14 -8 -14 -42 -57 -38 -76 8 -9
21 -9 33 0 49 15 30 33 16 25 -20 -4 -18 -3 -29 4 -29 6 0 11 13 11 28 0 51
37 68 64 30z m-1099 -49 c63 -16 65 -17 59 -33 -4 -11 -13 -12 -37 -5 -41 12
-45 5 -7 -11 38 -16 37 -45 -2 -45 -15 1 -24 -3 -22 -7 3 -4 14 -8 25 -8 10 0
19 -7 19 -15 0 -18 -16 -19 -76 -4 -37 10 -45 15 -42 33 2 15 12 23 38 27 19
4 31 7 25 8 -26 4 -47 30 -40 50 7 24 7 24 60 10z m1154 -126 c15 -54 -6 -83
-59 -83 -43 0 -56 14 -62 65 -3 28 -1 30 52 41 30 6 56 12 57 13 1 0 7 -16 12
-36z m-1229 -76 c0 -7 -5 -18 -12 -25 -6 -6 -9 -15 -5 -18 3 -4 12 5 18 19 20
45 64 45 75 0 8 -30 -10 -73 -31 -73 -17 0 -21 36 -3 42 6 2 9 11 6 19 -4 10
-9 6 -18 -13 -7 -15 -22 -30 -32 -34 -41 -13 -65 47 -32 80 19 19 34 21 34 3z
m1250 -36 c0 -19 -34 -31 -91 -31 -22 0 -29 5 -29 19 0 15 8 21 38 24 79 8 82
8 82 -12z m10 -52 c0 -14 -10 -24 -30 -32 -34 -13 -40 -27 -11 -27 33 0 51
-11 51 -31 0 -16 -5 -18 -27 -13 -74 18 -98 30 -101 50 -2 17 8 26 55 47 32
15 59 27 61 27 1 0 2 -9 2 -21z m-1190 -33 c0 -7 -7 -19 -15 -26 -17 -14 -20
-40 -5 -40 6 0 10 -9 10 -20 0 -25 2 -25 -65 5 -47 20 -56 28 -53 46 2 16 14
26 43 35 55 17 85 17 85 0z m1200 -106 c0 -18 -7 -20 -60 -20 -45 0 -60 4 -60
14 0 19 15 24 73 25 41 1 47 -2 47 -19z m-1300 -10 c0 -17 7 -20 46 -20 38 0
45 -3 42 -17 -2 -14 -15 -19 -51 -21 -33 -2 -47 -7 -47 -18 0 -7 -7 -14 -15
-14 -11 0 -15 11 -15 39 0 22 3 46 6 55 9 23 34 20 34 -4z m1310 -136 c0 -18
-11 -26 -61 -43 -55 -18 -61 -19 -66 -4 -4 9 -1 19 5 21 7 2 12 14 12 27 0 13
-5 25 -12 27 -6 2 -9 12 -5 21 6 15 11 15 67 -5 49 -18 60 -26 60 -44z m-1227
16 c5 -18 0 -20 -59 -20 -47 0 -64 4 -64 13 0 23 11 27 66 27 43 0 53 -3 57
-20z m-3 -59 c14 -28 12 -57 -5 -71 -21 -18 -46 3 -27 22 14 14 16 28 4 28 -4
0 -13 -13 -19 -30 -13 -36 -47 -40 -63 -9 -15 26 -5 69 16 69 12 0 14 -7 10
-32 l-5 -33 16 38 c18 42 55 51 73 18z m1225 -51 c0 -8 -15 -25 -34 -37 l-34
-23 32 0 c25 0 31 -4 31 -21 0 -17 -4 -20 -22 -15 -13 3 -40 6 -60 6 -31 0
-38 4 -38 20 0 12 10 25 25 32 27 12 24 28 -6 28 -10 0 -19 7 -19 15 0 13 11
15 63 13 46 -2 62 -7 62 -18z m-1215 -59 c0 -10 -10 -26 -22 -34 l-23 -16 28
0 c20 -1 27 -6 27 -21 0 -11 -6 -20 -14 -20 -7 0 -34 -3 -59 -6 l-45 -6 -7 41
c-9 52 7 75 45 68 14 -3 32 -2 40 4 22 13 30 11 30 -10z m1180 -60 c21 -6 24
-12 21 -36 -6 -51 -18 -65 -59 -65 -49 0 -62 14 -62 67 l0 43 38 -1 c20 -1 48
-4 62 -8z m-1167 -48 c3 -5 8 -27 12 -50 7 -46 7 -46 -72 -58 -45 -7 -47 -5
-55 65 -4 37 25 32 33 -5 l7 -30 1 33 c1 35 31 47 31 13 0 -11 5 -23 11 -27 7
-4 10 4 9 22 -3 39 -2 44 9 44 6 0 12 -3 14 -7z m1164 -80 c15 -6 10 -49 -9
-85 -11 -22 -46 -24 -54 -4 -4 11 -12 13 -31 5 -33 -12 -33 -12 -33 11 0 11 7
23 15 25 46 15 50 19 23 23 -27 3 -36 20 -21 36 8 7 81 0 110 -11z m-627 -43
c0 -5 -5 -10 -11 -10 -5 0 -7 5 -4 10 3 6 8 10 11 10 2 0 4 -4 4 -10z m-512
-23 c22 -15 12 -36 -30 -65 -64 -43 -65 -43 -71 -22 -3 14 4 25 25 38 l30 19
-35 7 c-31 6 -53 26 -42 38 7 6 108 -7 123 -15z m307 -17 c25 -26 27 -32 15
-40 -21 -14 -24 -13 -50 14 -13 15 -20 32 -17 40 9 23 20 20 52 -14z m305 -17
c85 -56 81 -79 -5 -39 -47 21 -55 29 -46 40 9 11 6 15 -14 20 -14 4 -23 11
-20 16 9 14 9 14 85 -37z m458 -14 c26 -7 48 -13 50 -14 2 -2 -2 -23 -9 -49
-7 -28 -17 -46 -26 -46 -11 0 -13 7 -8 31 5 22 4 29 -4 25 -6 -4 -11 -14 -11
-22 0 -8 -7 -14 -16 -14 -12 0 -15 6 -10 24 3 14 2 27 -3 30 -5 4 -12 -7 -16
-24 -7 -30 -19 -38 -30 -20 -8 13 14 90 26 90 6 0 31 -5 57 -11z m-1035 -54
c7 -18 1 -22 -60 -40 -37 -11 -49 -12 -55 -2 -14 21 -9 26 40 41 61 19 69 19
75 1z m724 -21 c17 -11 22 -19 15 -26 -16 -16 -45 -1 -38 18 5 14 4 15 -9 4
-13 -11 -14 -10 -9 5 5 12 4 16 -4 11 -6 -3 -13 -2 -17 3 -8 14 33 4 62 -15z
m-350 1 c1 -5 -2 -17 -7 -25 -8 -13 -14 -11 -37 13 l-28 28 34 -3 c19 -2 36
-7 38 -13z m272 -25 c18 0 34 -8 44 -22 13 -21 18 -22 37 -10 18 11 21 11 18
0 -7 -19 -43 -22 -70 -5 -13 8 -35 17 -50 21 -18 4 -28 13 -28 25 0 26 14 36
18 12 3 -16 11 -21 31 -21z m-626 -12 c2 -7 -4 -25 -15 -40 l-19 -27 28 2 c46
3 33 -23 -21 -45 -59 -23 -77 -13 -56 29 8 16 16 32 18 36 3 5 -6 4 -18 -3
-18 -10 -24 -9 -31 1 -14 23 -11 27 34 42 53 19 74 20 80 5z m947 -89 l33 -62
-22 -45 c-15 -31 -25 -42 -32 -35 -8 8 -7 18 1 33 6 12 9 24 7 27 -3 2 -10 -5
-17 -16 -6 -12 -17 -21 -25 -21 -18 0 -18 5 -5 30 6 10 6 21 1 24 -4 3 -13 -6
-19 -19 -11 -25 -23 -31 -35 -19 -9 9 30 81 48 87 9 4 15 19 15 42 0 19 4 35
9 35 4 0 23 -28 41 -61z m-883 -41 c31 -29 29 -62 -4 -86 -41 -29 -70 -35 -76
-18 -4 10 6 22 29 35 19 11 34 27 34 36 0 19 -3 19 -49 -5 -39 -19 -51 -18
-51 6 0 13 63 53 84 54 6 0 20 -10 33 -22z"/>
<path d="M660 3050 c0 -5 5 -10 10 -10 6 0 10 5 10 10 0 6 -4 10 -10 10 -5 0
-10 -4 -10 -10z"/>
<path d="M800 3040 c0 -5 5 -10 11 -10 5 0 7 5 4 10 -3 6 -8 10 -11 10 -2 0
-4 -4 -4 -10z"/>
<path d="M455 2941 c-6 -11 9 -23 19 -14 9 9 7 23 -3 23 -6 0 -12 -4 -16 -9z"/>
<path d="M532 2069 c-28 -27 -57 -49 -64 -49 -7 -1 -24 -7 -38 -15 -24 -14
-24 -14 15 -8 23 3 46 14 54 25 8 11 34 35 58 53 24 18 40 36 35 39 -4 2 -31
-17 -60 -45z"/>
<path d="M752 2064 l-43 -34 -56 32 c-68 39 -64 24 6 -19 l49 -31 40 34 c22
19 43 34 46 34 3 0 25 -13 48 -30 40 -29 91 -39 102 -21 4 5 -2 7 -13 4 -10
-3 -41 10 -74 31 -31 20 -57 36 -59 35 -2 0 -22 -16 -46 -35z"/>
<path d="M970 2049 c-11 -8 -8 -9 14 -4 21 4 32 1 41 -12 7 -10 18 -19 24 -19
6 -1 15 -2 19 -3 4 0 16 -14 25 -31 15 -24 26 -31 67 -36 56 -7 68 -22 18 -21
-34 1 -38 -8 -24 -44 6 -13 2 -15 -19 -11 -15 2 -30 14 -35 26 l-9 21 0 -22
c-1 -28 -15 -37 -31 -18 -7 8 -18 15 -26 15 -7 0 -19 12 -26 27 -16 33 -28 37
-53 19 -19 -14 -19 -15 8 -25 21 -8 27 -16 23 -29 -4 -12 1 -26 14 -37 30 -27
25 -34 -22 -28 -34 4 -53 16 -93 54 -53 51 -85 65 -65 29 13 -24 2 -76 -12
-62 -6 6 -15 21 -22 34 -8 16 -29 28 -71 41 -33 10 -73 22 -89 27 -16 5 -31 8
-33 6 -2 -2 8 -18 23 -36 23 -27 26 -35 15 -51 -6 -11 -9 -25 -5 -32 3 -7 -8
3 -25 21 -17 18 -31 39 -31 48 0 10 -6 14 -14 11 -7 -3 -19 0 -25 6 -8 8 -11
8 -11 -2 0 -7 -5 -9 -10 -6 -6 4 -17 2 -24 -4 -9 -8 -26 -6 -60 5 -45 15 -49
15 -82 -2 -49 -26 -42 -52 22 -86 28 -15 85 -34 127 -42 42 -8 85 -20 96 -25
11 -6 35 -11 54 -11 19 0 54 -7 77 -15 56 -20 92 -19 170 5 36 11 103 29 150
40 146 34 195 56 213 96 10 19 17 40 17 47 0 15 -61 42 -116 51 -29 5 -47 16
-63 37 -12 16 -28 29 -35 29 -7 0 -19 7 -26 15 -15 17 -39 19 -60 4z m246
-210 c9 -15 -23 -10 -35 5 -10 12 -8 13 9 9 11 -3 23 -9 26 -14z"/>
<path d="M330 1939 l-35 -30 38 26 c33 24 43 35 34 35 -1 0 -18 -14 -37 -31z"/>
<path d="M530 1753 c0 -11 38 -73 45 -73 4 0 -1 10 -9 22 -27 38 -18 41 27 7
65 -50 67 -52 67 -46 0 4 -91 75 -117 91 -7 4 -13 4 -13 -1z"/>
<path d="M670 1656 c0 -2 14 -14 30 -26 17 -12 30 -19 30 -16 0 2 -13 14 -30
26 -16 12 -30 19 -30 16z"/>
<path d="M373 2824 c-9 -23 25 -48 44 -32 11 9 11 14 -3 29 -21 23 -33 24 -41
3z"/>
<path d="M277 2589 c7 -7 15 -10 18 -7 3 3 -2 9 -12 12 -14 6 -15 5 -6 -5z"/>
<path d="M1330 2370 c-12 -8 -12 -10 3 -16 20 -7 47 1 47 16 0 12 -30 13 -50
0z"/>
<path d="M1388 1943 c7 -3 16 -2 19 1 4 3 -2 6 -13 5 -11 0 -14 -3 -6 -6z"/>
<path d="M150 1745 c0 -8 5 -15 10 -15 6 0 10 7 10 15 0 8 -4 15 -10 15 -5 0
-10 -7 -10 -15z"/>
<path d="M1350 1685 c0 -10 10 -15 30 -15 32 0 40 14 14 24 -27 10 -44 7 -44
-9z"/>
<path d="M1370 1555 c0 -8 5 -15 10 -15 6 0 10 7 10 15 0 8 -4 15 -10 15 -5 0
-10 -7 -10 -15z"/>
<path d="M1250 1260 c0 -5 5 -10 11 -10 5 0 7 5 4 10 -3 6 -8 10 -11 10 -2 0
-4 -4 -4 -10z"/>
<path d="M510 645 c-72 -134 -116 -241 -136 -334 -20 -94 -19 -114 5 -106 12
3 23 0 28 -8 4 -8 17 -16 28 -18 11 -3 24 -13 30 -24 6 -13 18 -19 33 -17 13
2 25 -3 28 -12 3 -9 14 -16 24 -16 10 0 21 -9 25 -19 4 -13 12 -17 25 -14 12
3 22 -1 26 -11 4 -11 13 -14 30 -10 17 4 26 1 30 -10 5 -12 10 -14 19 -6 7 6
16 7 19 2 6 -10 101 -10 112 1 4 4 13 2 20 -4 11 -9 15 -7 20 6 5 11 14 15 29
11 15 -4 25 -1 29 9 3 8 15 15 26 15 11 0 23 7 26 15 4 8 14 15 24 15 10 0 20
7 24 15 3 8 16 15 30 15 15 0 25 7 29 20 3 13 14 20 30 20 14 0 28 7 31 16 4
10 13 13 27 9 20 -7 21 -5 14 46 -11 90 -70 247 -140 380 l-68 126 -54 -21
c-30 -11 -55 -25 -55 -31 0 -5 -7 -18 -15 -28 -18 -20 -19 -19 25 -41 17 -9
32 -19 32 -21 0 -3 -11 -12 -25 -21 -20 -13 -28 -14 -40 -4 -20 16 -19 3 0
-17 13 -12 18 -13 31 -3 19 17 29 6 15 -17 -6 -10 -11 -12 -11 -6 0 10 -10 9
-41 -3 -37 -15 -43 -15 -81 0 -23 8 -43 14 -45 12 -2 -2 6 -28 18 -58 l21 -55
46 2 c40 1 47 5 55 28 5 15 12 25 17 22 4 -3 6 5 2 17 -5 22 -4 22 15 5 11 -9
22 -15 25 -12 2 3 15 -6 28 -20 13 -14 18 -25 12 -25 -7 0 -12 -7 -12 -15 0
-8 -4 -15 -10 -15 -5 0 -6 8 -3 17 5 13 1 12 -17 -5 -31 -29 -22 -36 29 -22
28 7 41 16 41 28 0 14 2 14 9 3 5 -8 18 -12 30 -8 25 6 26 -7 6 -43 l-15 -25
6 27 6 27 -57 -22 c-31 -12 -56 -25 -56 -29 1 -5 1 -25 1 -47 0 -37 2 -39 48
-56 58 -22 57 -21 41 -38 -11 -12 -16 -11 -29 4 -18 21 -76 30 -72 11 1 -6 -7
-12 -18 -12 -11 0 -20 -7 -20 -15 0 -12 6 -11 33 5 39 24 47 25 47 5 0 -8 5
-15 10 -15 6 0 1 -14 -12 -30 -15 -21 -24 -26 -29 -18 -14 22 -23 -21 -11 -47
14 -30 3 -38 -23 -18 -17 14 -18 15 -2 9 15 -5 17 -2 11 17 -4 12 -8 30 -8 39
0 9 -3 15 -7 12 -4 -2 -10 7 -13 20 -5 21 -12 24 -52 24 -43 0 -47 -2 -61 -36
-8 -20 -17 -51 -20 -69 -3 -18 -10 -33 -14 -33 -12 0 -11 17 2 41 7 15 7 24
-1 34 -7 8 -9 20 -5 27 4 7 0 5 -8 -4 -13 -16 -15 -16 -37 7 -13 14 -18 25
-12 25 7 0 12 7 12 15 0 8 4 15 10 15 5 0 7 -8 4 -18 -5 -13 -4 -14 4 -3 7 10
14 10 30 2 26 -14 32 -14 32 -1 0 6 -7 10 -15 10 -8 0 -15 7 -15 15 0 13 -8
15 -37 9 -21 -3 -43 -13 -49 -20 -10 -12 -13 -12 -23 0 -10 12 -3 17 38 31 48
16 49 17 53 61 3 44 2 46 -31 60 -19 8 -46 17 -59 21 -22 5 -24 3 -18 -18 l7
-24 -15 25 c-23 38 -21 53 6 39 17 -9 23 -9 26 0 3 8 9 5 19 -8 18 -27 33 -27
33 -1 0 12 -7 20 -17 20 -13 0 -10 7 12 30 l29 30 12 -22 c11 -21 12 -19 9 17
-1 22 -6 49 -10 59 -9 20 -8 20 40 0 6 -2 15 4 22 14 10 17 6 22 -33 41 -48
25 -57 37 -20 27 33 -8 55 18 27 33 -11 6 -25 11 -31 11 -6 0 -36 16 -66 35
-30 19 -58 35 -63 35 -4 0 -36 -52 -71 -115z m506 -291 c-3 -9 3 -36 14 -61
11 -26 18 -48 15 -51 -7 -7 -8 -5 -27 51 -15 42 -15 77 -1 77 3 0 2 -7 -1 -16z
m-414 -61 c-19 -56 -20 -58 -27 -51 -5 5 33 98 40 98 2 0 -4 -21 -13 -47z
m248 -163 c11 -7 5 -8 -20 -4 -43 8 -51 14 -19 14 13 0 31 -5 39 -10z"/>
<path d="M798 593 c6 -2 18 -2 25 0 6 3 1 5 -13 5 -14 0 -19 -2 -12 -5z"/>
<path d="M798 543 c6 -2 18 -2 25 0 6 3 1 5 -13 5 -14 0 -19 -2 -12 -5z"/>
<path d="M870 455 c0 -8 7 -15 16 -15 14 0 14 3 4 15 -7 8 -14 15 -16 15 -2 0
-4 -7 -4 -15z"/>
<path d="M708 442 c-33 -20 -36 -32 -8 -32 11 0 20 7 20 15 0 8 5 14 11 13 6
-2 14 3 16 10 6 16 -6 14 -39 -6z"/>
<path d="M785 350 c-12 -4 -27 -16 -35 -25 -13 -15 -11 -20 13 -41 16 -13 36
-24 46 -24 22 0 71 37 71 54 0 9 -62 48 -73 45 -1 0 -11 -4 -22 -9z"/>
</g>
</svg>
